<svg xmlns="http://www.w3.org/2000/svg" version="1.1" xmlns:xlink="http://www.w3.org/1999/xlink" width="2000" height="404" viewBox="0 0 2000 404"><g transform="matrix(1,0,0,1,-1.2121212121212466,-1.0230576032598435)"><svg viewBox="0 0 396 80" data-background-color="#dedede" preserveAspectRatio="xMidYMid meet" height="404" width="2000" xmlns="http://www.w3.org/2000/svg" xmlns:xlink="http://www.w3.org/1999/xlink"><g id="tight-bounds" transform="matrix(1,0,0,1,0.2400000000000091,0.20258566401184908)"><svg viewBox="0 0 395.52 79.59482867197629" height="79.59482867197629" width="395.52"><g><svg viewBox="0 0 395.52 79.59482867197629" height="79.59482867197629" width="395.52"><g><svg viewBox="0 0 395.52 79.59482867197629" height="79.59482867197629" width="395.52"><g id="textblocktransform"><svg viewBox="0 0 395.52 79.59482867197629" height="79.59482867197629" width="395.52" id="textblock"><g><svg viewBox="0 0 395.52 79.59482867197629" height="79.59482867197629" width="395.52"><g transform="matrix(1,0,0,1,0,0)"><svg width="395.52" viewBox="3.74 -41.94 263.59 53.05" height="79.59482867197629" data-palette-color="#374151"><path d="M3.74-2.39L5.49-5.76Q10.52-2.95 15.6-2.95L15.6-2.95Q19.82-2.95 20.56-5.96L20.56-5.96Q20.8-6.98 20.8-8.46 20.8-9.94 20.46-10.75 20.12-11.57 19.31-11.98 18.51-12.38 17.18-12.57 15.84-12.77 13.79-13.12 11.74-13.48 10.03-13.92 8.33-14.36 7.13-15.19L7.13-15.19Q4.59-16.97 4.69-21.19L4.69-21.19 4.69-21.8Q4.69-26.25 7.62-28.13L7.62-28.13Q10.45-29.98 16.97-29.39L16.97-29.39Q21.41-28.98 24.05-27.86L24.05-27.86 22.9-24.17Q19.97-25.42 15.87-25.98L15.87-25.98Q14.6-26.15 13.49-26.15 12.38-26.15 11.47-25.98 10.57-25.81 9.96-25.34L9.96-25.34Q8.79-24.39 8.74-21.8L8.74-21.8Q8.67-18.75 10.45-17.92L10.45-17.92Q12.16-17.11 14.5-16.81 16.85-16.5 18.33-16.27 19.82-16.04 21.04-15.65 22.27-15.26 23.14-14.4L23.14-14.4Q24.98-12.67 24.93-8.37L24.93-8.37Q24.8-0.88 18.68 0.17L18.68 0.17Q16.82 0.49 14.97 0.49 13.11 0.49 11.56 0.26 10.01 0.02 8.59-0.39L8.59-0.39Q5.91-1.15 3.74-2.39L3.74-2.39ZM37.5-36.01L37.5-36.01Q35.86-36.01 35.4-36.47L35.4-36.47Q34.67-37.23 34.67-38.56 34.67-39.89 34.82-40.47 34.98-41.04 35.3-41.36L35.3-41.36Q35.89-41.94 37.09-41.94 38.3-41.94 38.83-41.82 39.35-41.7 39.69-41.36L39.69-41.36Q40.28-40.77 40.28-39.44 40.28-38.11 40.15-37.54 40.01-36.96 39.69-36.62L39.69-36.62Q39.08-36.01 37.5-36.01ZM35.57 0L35.52-29.05 39.52-29.05 39.52 0 35.57 0ZM64.06-25.73L64.06-25.73Q60.08-25.73 55.37-22.92L55.37-22.92 55.37 0 51.31 0 51.31-29.05 54.88-29.05 55.27-26.05Q59.54-29.54 64.84-29.54L64.84-29.54Q67.87-29.54 69.61-28.67 71.36-27.81 72.14-25.83L72.14-25.83Q77.53-29.54 82.39-29.54L82.39-29.54Q86.98-29.54 88.76-27.44L88.76-27.44Q90.47-25.42 90.47-20.24L90.47-20.24 90.47 0 86.37 0 86.37-19.48Q86.37-23 85.69-24.01 85-25.02 84.06-25.38 83.12-25.73 81.87-25.73 80.61-25.73 79.5-25.5 78.39-25.27 77.24-24.88L77.24-24.88Q74.92-24.07 72.8-22.83L72.8-22.83Q72.92-21.36 72.92-20.24L72.92-20.24 72.92 0 68.82 0 68.82-19.48Q68.82-23 68.13-24.01 67.45-25.02 66.51-25.38 65.57-25.73 64.06-25.73ZM105.14-1.73L105.14-1.73 105.14 11.11 101.09 11.11 101.09-29.05 104.39-29.05 104.85-26.05Q107.71-28.2 112.3-29.2L112.3-29.2Q113.96-29.54 115.91-29.54 117.86-29.54 119.37-29.03 120.87-28.52 121.84-27.6 122.82-26.68 123.36-25.42 123.89-24.15 124.16-22.66L124.16-22.66Q124.5-20.61 124.5-16.11L124.5-16.11 124.5-15.55Q124.5-9.84 124.11-7.64 123.72-5.44 123.09-4.02 122.45-2.59 121.33-1.59L121.33-1.59Q119.01 0.49 114.15 0.49 109.29 0.49 105.14-1.73ZM105.14-22.92L105.14-5.08Q109.29-3.17 113.86-3.17L113.86-3.17Q116.84-3.17 118.21-4.27L118.21-4.27Q120.06-5.79 120.28-11.33L120.28-11.33Q120.35-13.16 120.35-15.53L120.35-15.53 120.35-16.06Q120.35-21.68 119.38-23.58L119.38-23.58Q118.28-25.76 114.84-25.76L114.84-25.76 114.47-25.76Q110.88-25.76 107.02-23.97L107.02-23.97Q105.9-23.46 105.14-22.92L105.14-22.92ZM135.46 0L135.41-41.5 139.44-41.85 139.44 0 135.46 0ZM154.11-36.01L154.11-36.01Q152.48-36.01 152.01-36.47L152.01-36.47Q151.28-37.23 151.28-38.56 151.28-39.89 151.44-40.47 151.6-41.04 151.92-41.36L151.92-41.36Q152.5-41.94 153.71-41.94 154.92-41.94 155.44-41.82 155.97-41.7 156.31-41.36L156.31-41.36Q156.9-40.77 156.9-39.44 156.9-38.11 156.76-37.54 156.63-36.96 156.31-36.62L156.31-36.62Q155.7-36.01 154.11-36.01ZM152.18 0L152.14-29.05 156.14-29.05 156.14 0 152.18 0ZM186.85-4.59L188.07-1.29Q184.68 0.49 178.77 0.49L178.77 0.49Q175.28 0.49 173.64-0.05L173.64-0.05Q169.47-1.46 168.17-4.86L168.17-4.86Q167.27-7.23 167.12-9.96 166.98-12.7 166.98-14.58 166.98-16.46 167.07-18.25 167.17-20.04 167.55-21.7 167.93-23.36 168.71-24.79 169.49-26.22 170.83-27.29L170.83-27.29Q173.74-29.54 179.18-29.54L179.18-29.54Q183.19-29.54 186.56-28.37L186.56-28.37Q187.46-28.08 187.92-27.81L187.92-27.81 186.7-24.19Q182.02-26 179.03-26 176.03-26 174.63-25.32 173.23-24.63 172.45-23.24L172.45-23.24Q171.13-20.85 171.13-14.45L171.13-14.45Q171.13-11.89 171.3-9.78 171.47-7.67 172.15-6.15L172.15-6.15Q173.59-3.03 178.1-3.03 182.6-3.03 186.85-4.59L186.85-4.59ZM199.98-36.01L199.98-36.01Q198.35-36.01 197.88-36.47L197.88-36.47Q197.15-37.23 197.15-38.56 197.15-39.89 197.31-40.47 197.47-41.04 197.79-41.36L197.79-41.36Q198.37-41.94 199.58-41.94 200.79-41.94 201.31-41.82 201.84-41.7 202.18-41.36L202.18-41.36Q202.77-40.77 202.77-39.44 202.77-38.11 202.63-37.54 202.5-36.96 202.18-36.62L202.18-36.62Q201.57-36.01 199.98-36.01ZM198.05 0L198-29.05 202.01-29.05 202.01 0 198.05 0ZM226.66-4.57L228.06-1.39Q224.08 0.49 220.71 0.49L220.71 0.49Q214.6 0.49 213.77-4.74L213.77-4.74Q213.58-5.98 213.58-8.35L213.58-8.35 213.58-25.66 210.06-25.66 210.06-28.66 213.58-29.05 214.21-35.69 217.61-35.69 217.61-29.05 226.08-29.05 226.08-25.66 217.61-25.66 217.61-8.42Q217.61-5.42 218.05-4.59L218.05-4.59Q218.85-3.08 221.27-3.08 223.69-3.08 226.66-4.57L226.66-4.57ZM232.86 10.21L233.96 7.03Q235.74 7.67 236.88 7.67 238.01 7.67 238.37 7.6 238.72 7.54 239.09 7.35L239.09 7.35Q239.94 6.88 240.36 5.83L240.36 5.83Q241.38 3.34 242.14 0.37L242.14 0.37 230.93-29.05 235.45-29.05 243.02-7.64 244.17-3.88 245.22-7.67 251.91-29.05 256.15-29.05 243.9 6.88Q242.56 11.08 237.7 11.08L237.7 11.08Q234.62 11.08 232.86 10.21L232.86 10.21ZM262.34-0.04Q261.89-0.54 261.77-1.16 261.64-1.78 261.64-2.75 261.64-3.71 261.78-4.32 261.91-4.93 262.26-5.27L262.26-5.27Q262.82-5.91 264.09-5.91 265.36-5.91 265.91-5.77 266.45-5.64 266.77-5.27L266.77-5.27Q267.33-4.66 267.33-2.76L267.33-2.76Q267.33-0.85 266.89-0.34L266.89-0.34Q266.21 0.46 264.5 0.46L264.5 0.46Q262.79 0.46 262.34-0.04Z" opacity="1" transform="matrix(1,0,0,1,0,0)" fill="#ffffff" class="wordmark-text-0" data-fill-palette-color="primary" id="text-0"></path></svg></g></svg></g></svg></g></svg></g></svg></g><defs></defs></svg><rect width="395.52" height="79.59482867197629" fill="none" stroke="none" visibility="hidden"></rect></g></svg></g></svg>